HIERARCHY
ROOT Hips
{
	OFFSET 0.000000 0.000000 0.000000
	CHANNELS 6 Xposition Yposition Zposition Xrotation Yrotation Zrotation
	JOINT LeftUpLeg_virtual
	{
		OFFSET 0.000000 0.000000 0.000000
		CHANNELS 3 Xrotation Yrotation Zrotation
		JOINT LeftUpLeg
		{
			OFFSET 11.394100 -6.187798 -0.413800
			CHANNELS 3 Xrotation Yrotation Zrotation
			JOINT LeftLeg
			{
				OFFSET 0.430247 -32.302673 3.732800
				CHANNELS 3 Xrotation Yrotation Zrotation
				JOINT LeftFoot
				{
					OFFSET -0.430247 -48.264931 -6.423300
					CHANNELS 3 Xrotation Yrotation Zrotation
					JOINT LeftToeBase
					{
						OFFSET 4.230900 -16.068199 23.438400
						CHANNELS 3 Xrotation Yrotation Zrotation
						JOINT LeftToe_End
						{
							OFFSET 4.510700 0.695400 19.974600
							CHANNELS 3 Xrotation Yrotation Zrotation
							End Site
							{
								OFFSET 0 0 0
							}
						}
					}
				}
			}
		}
	}
	JOINT RightUpLeg_virtual
	{
		OFFSET 0.000000 0.000000 0.000000
		CHANNELS 3 Xrotation Yrotation Zrotation
		JOINT RightUpLeg
		{
			OFFSET -11.333700 -6.187798 -0.413800
			CHANNELS 3 Xrotation Yrotation Zrotation
			JOINT RightLeg
			{
				OFFSET -0.430392 -32.302628 3.733000
				CHANNELS 3 Xrotation Yrotation Zrotation
				JOINT RightFoot
				{
					OFFSET 0.430392 -48.264973 -6.423500
					CHANNELS 3 Xrotation Yrotation Zrotation
					JOINT RightToeBase
					{
						OFFSET -4.230900 -16.068199 23.438400
						CHANNELS 3 Xrotation Yrotation Zrotation
						JOINT RightToe_End
						{
							OFFSET -4.510700 0.695400 19.974600
							CHANNELS 3 Xrotation Yrotation Zrotation
							End Site
							{
								OFFSET 0 0 0
							}
						}
					}
				}
			}
		}
	}
	JOINT Spine_virtual
	{
		OFFSET 0.000000 0.000000 0.000000
		CHANNELS 3 Xrotation Yrotation Zrotation
		JOINT Spine
		{
			OFFSET -0.002400 12.777504 0.315300
			CHANNELS 3 Xrotation Yrotation Zrotation
			JOINT Spine1
			{
				OFFSET -0.002067 5.816869 0.032633
				CHANNELS 3 Xrotation Yrotation Zrotation
				JOINT Spine1_split
				{
					OFFSET -0.002067 5.816869 0.032633
					CHANNELS 3 Xrotation Yrotation Zrotation
					JOINT Spine2
					{
						OFFSET -0.002067 5.816869 0.032633
						CHANNELS 3 Xrotation Yrotation Zrotation
						JOINT Neck_virtual
						{
							OFFSET 0.000000 0.000000 0.000000
							CHANNELS 3 Xrotation Yrotation Zrotation
							JOINT Neck
							{
								OFFSET -0.003700 21.199493 -0.826900
								CHANNELS 3 Xrotation Yrotation Zrotation
								JOINT Head
								{
									OFFSET 0.000000 20.442200 4.834800
									CHANNELS 3 Xrotation Yrotation Zrotation
									JOINT HeadTop_End
									{
										OFFSET 0.000000 34.668396 4.968400
										CHANNELS 3 Xrotation Yrotation Zrotation
										End Site
										{
											OFFSET 0 0 0
										}
									}
								}
							}
						}
						JOINT LeftShoulder_virtual
						{
							OFFSET 0.000000 0.000000 0.000000
							CHANNELS 3 Xrotation Yrotation Zrotation
							JOINT LeftShoulder
							{
								OFFSET 3.288150 8.794197 -1.372250
								CHANNELS 3 Xrotation Yrotation Zrotation
								JOINT LeftShoulder_split
								{
									OFFSET 3.288150 8.794197 -1.372250
									CHANNELS 3 Xrotation Yrotation Zrotation
									JOINT LeftArm
									{
										OFFSET 11.953299 -2.279007 -0.146200
										CHANNELS 3 Xrotation Yrotation Zrotation
										JOINT LeftForeArm
										{
											OFFSET 18.448900 0.000000 0.000000
											CHANNELS 3 Xrotation Yrotation Zrotation
											JOINT LeftHand
											{
												OFFSET 29.527798 0.000000 0.000000
												CHANNELS 3 Xrotation Yrotation Zrotation
												End Site
												{
													OFFSET 0 0 0
												}
											}
										}
									}
								}
							}
						}
						JOINT RightShoulder_virtual
						{
							OFFSET 0.000000 0.000000 0.000000
							CHANNELS 3 Xrotation Yrotation Zrotation
							JOINT RightShoulder
							{
								OFFSET -3.249400 8.794197 -1.372250
								CHANNELS 3 Xrotation Yrotation Zrotation
								JOINT RightShoulder_split
								{
									OFFSET -3.249400 8.794197 -1.372250
									CHANNELS 3 Xrotation Yrotation Zrotation
									JOINT RightArm
									{
										OFFSET -11.953299 -2.279007 -0.146200
										CHANNELS 3 Xrotation Yrotation Zrotation
										JOINT RightForeArm
										{
											OFFSET -18.448900 0.000000 0.000000
											CHANNELS 3 Xrotation Yrotation Zrotation
											JOINT RightHand
											{
												OFFSET -29.527802 0.000000 0.000000
												CHANNELS 3 Xrotation Yrotation Zrotation
												End Site
												{
													OFFSET 0 0 0
												}
											}
										}
									}
								}
							}
						}
					}
				}
			}
		}
	}
}
MOTION
Frames: 6
Frame Time: 0.03333333
5.644415 101.155273 -14.131083 0.000000 0.000000 0.000000 5.192991 8.207839 -0.702905 -24.667903 7.310828 1.923896 24.255873 4.615468 7.577072 -3.905368 -2.842465 -7.575954 -1.829482 -4.453191 4.068108 0.000000 0.000000 0.000000 5.210496 5.462039 -0.574866 -13.907714 -10.802735 0.695832 18.972724 -2.677069 -3.327970 -12.604026 -23.292004 7.743780 -4.589835 4.159581 -6.630079 0.000000 0.000000 0.000000 6.791322 10.013635 -1.142854 21.065661 -1.306506 1.903301 3.891275 1.977502 -0.058998 0.161019 -0.955089 0.158224 0.000000 0.000000 0.000000 6.345707 5.102454 -0.823514 7.170847 15.422828 7.945767 -12.447507 -55.587761 -44.572807 0.000000 0.000000 0.000000 5.763238 2.166335 -0.648262 6.522510 -38.514767 2.207611 5.976670 1.665743 -7.362003 18.670460 17.875467 -54.971155 4.468979 -40.515477 12.455092 0.000000 0.000000 0.000000 2.345049 2.593476 0.278231 -7.582082 0.207987 7.331432 -10.518721 -11.343523 6.328981 17.392860 11.262754 31.461518 -9.898923 35.732565 19.628908 0.000000 0.000000 0.000000 
5.679326 101.241737 -13.943327 0.000000 0.000000 0.000000 5.079609 8.208997 -0.808171 -24.345321 7.506933 2.012899 24.189557 4.533956 7.660411 -4.055314 -3.094931 -7.856928 -1.953306 -4.460685 4.065155 0.000000 0.000000 0.000000 5.086607 5.406615 -0.664009 -13.432854 -10.459542 0.910441 18.568175 -2.738438 -3.373078 -12.502209 -23.538239 7.719487 -4.767376 4.157850 -6.631832 0.000000 0.000000 0.000000 6.644635 10.110530 -1.255795 20.455175 -1.310118 1.878765 3.981365 2.036324 -0.127317 0.188511 -1.019263 0.176741 0.000000 0.000000 0.000000 6.280361 5.192836 -0.824453 6.995772 15.283329 8.399682 -12.106960 -57.392461 -46.418089 0.000000 0.000000 0.000000 5.948574 2.237400 -0.579518 6.179809 -37.704338 1.879965 6.189900 1.524175 -7.408569 19.251798 18.449017 -54.743840 5.385649 -40.025069 13.459234 0.000000 0.000000 0.000000 2.291781 2.587862 0.200736 -7.631566 0.547713 8.025993 -10.997128 -11.550090 5.936969 18.665462 9.902236 31.042708 -9.347168 37.109118 19.720633 0.000000 0.000000 0.000000 
5.710913 101.269073 -13.799246 0.000000 0.000000 0.000000 4.937755 8.251725 -0.931476 -24.149983 7.629702 2.135106 24.258120 4.466418 7.715287 -4.182372 -3.294096 -8.159850 -2.071231 -4.458156 4.047382 0.000000 0.000000 0.000000 4.959250 5.423829 -0.774894 -13.048257 -10.121539 1.106236 18.331671 -2.754867 -3.409055 -12.500301 -23.783313 7.676415 -4.841962 4.184576 -6.807024 0.000000 0.000000 0.000000 6.490569 10.215786 -1.383147 19.946048 -1.265292 1.883173 4.107476 2.112992 -0.170988 0.202873 -1.077247 0.188032 0.000000 0.000000 0.000000 6.224410 5.290132 -0.788667 6.913168 15.172084 8.735403 -12.035208 -59.285181 -48.310201 0.000000 0.000000 0.000000 6.154665 2.318021 -0.512858 5.851495 -36.859915 1.457855 6.283687 1.417195 -7.406677 19.412342 18.381294 -54.601229 6.536477 -39.739629 14.481227 0.000000 0.000000 0.000000 2.279967 2.599169 0.160865 -7.647257 0.958386 8.902901 -11.418751 -11.576867 5.617182 19.181485 8.748931 31.012300 -9.386531 38.327907 20.544716 0.000000 0.000000 0.000000 
5.738472 101.233688 -13.692942 0.000000 0.000000 0.000000 4.768133 8.326822 -1.055218 -24.068456 7.689037 2.271928 24.450317 4.419410 7.735608 -4.294645 -3.432381 -8.458423 -2.139205 -4.444947 4.015566 0.000000 0.000000 0.000000 4.833410 5.508555 -0.885689 -12.767955 -9.817387 1.255450 18.274630 -2.730952 -3.423167 -12.610112 -24.008690 7.577242 -4.746782 4.233735 -7.138264 0.000000 0.000000 0.000000 6.338404 10.343189 -1.516009 19.549139 -1.181748 1.916446 4.254347 2.208526 -0.184862 0.206176 -1.115849 0.192384 0.000000 0.000000 0.000000 6.185168 5.397607 -0.721918 6.852203 15.091503 8.931517 -12.377233 -61.161428 -50.283590 0.000000 0.000000 0.000000 6.342506 2.413178 -0.451822 5.550546 -36.085187 0.953940 6.227301 1.323369 -7.352566 19.246969 17.843707 -54.487178 7.650482 -39.592407 15.278146 0.000000 0.000000 0.000000 2.287640 2.632305 0.165658 -7.637715 1.380597 9.932422 -11.855077 -11.405299 5.365187 18.999903 7.870020 31.320591 -9.982794 39.286381 22.003663 0.000000 0.000000 0.000000 
5.758985 101.149895 -13.618845 0.000000 0.000000 0.000000 4.580818 8.425191 -1.146381 -24.058875 7.694659 2.397307 24.699554 4.388698 7.728817 -4.399137 -3.508145 -8.736132 -2.146435 -4.421082 3.986940 0.000000 0.000000 0.000000 4.695210 5.633297 -0.964432 -12.614059 -9.584343 1.327404 18.405215 -2.659755 -3.407922 -12.742779 -24.195448 7.486203 -4.578727 4.302869 -7.594453 0.000000 0.000000 0.000000 6.191180 10.501599 -1.631203 19.264286 -1.060155 1.967500 4.414729 2.326357 -0.175824 0.204917 -1.147971 0.189087 0.000000 0.000000 0.000000 6.169911 5.518126 -0.634551 6.722442 15.025342 8.980912 -13.270661 -62.946846 -52.431203 0.000000 0.000000 0.000000 6.486855 2.526019 -0.401774 5.280509 -35.480606 0.382705 6.121588 1.203086 -7.210765 18.863248 16.999571 -54.348560 8.529609 -39.693299 15.664161 0.000000 0.000000 0.000000 2.293142 2.697517 0.216470 -7.616682 1.812217 11.128883 -12.288363 -11.121987 5.220939 18.301307 7.317819 31.990502 -10.967936 39.789762 23.904938 0.000000 0.000000 0.000000 
5.767033 101.044853 -13.571211 0.000000 0.000000 0.000000 4.386006 8.546859 -1.171024 -24.061816 7.652622 2.472409 24.912056 4.369885 7.701781 -4.487967 -3.527480 -8.982153 -2.093086 -4.389506 3.962225 0.000000 0.000000 0.000000 4.542443 5.781822 -0.979571 -12.548688 -9.448227 1.310208 18.673865 -2.539453 -3.363827 -12.812618 -24.339260 7.460885 -4.447628 4.387159 -8.130093 0.000000 0.000000 0.000000 6.042271 10.701166 -1.705098 19.081812 -0.902175 2.025362 4.574951 2.463703 -0.156913 0.191854 -1.174818 0.183293 0.000000 0.000000 0.000000 6.181459 5.656028 -0.542316 6.488808 14.965986 8.882009 -14.792704 -64.667972 -54.821878 0.000000 0.000000 0.000000 6.577216 2.655391 -0.367622 5.032810 -35.074442 -0.258875 6.018304 1.031708 -6.984882 18.288351 15.996154 -54.139607 9.041103 -40.164883 15.547782 0.000000 0.000000 0.000000 2.290168 2.795254 0.302236 -7.579437 2.319016 12.466900 -12.715382 -10.838758 5.172359 17.283237 7.076392 33.042830 -12.199070 39.909161 26.066087 0.000000 0.000000 0.000000 
